<?xml version="1.0" encoding="utf-8"?>
<!-- Generator: Adobe Illustrator 24.1.1, SVG Export Plug-In . SVG Version: 6.00 Build 0)  -->
<svg version="1.1" id="Layer_1" xmlns="http://www.w3.org/2000/svg" xmlns:xlink="http://www.w3.org/1999/xlink" x="0px" y="0px"
	 viewBox="0 0 512 512" style="enable-background:new 0 0 512 512;" xml:space="preserve">
<style type="text/css">
	.st0{fill:#333333;}
</style>
<g id="XMLID_5_">
	<path id="XMLID_9_" class="st0" d="M445.6,281.4c0.9-7.9,1.8-16.7,1.8-25.4s-0.9-16.7-1.8-25.4l54.4-42.1
		c5.3-3.5,6.1-10.5,3.5-16.7l-50.8-88.5c-3.5-5.3-9.6-7.9-15.8-5.3l-64,25.4c-13.2-10.5-28.1-18.4-43-25.4l-9.6-67.5
		C319.3,4.4,314.1,0,307.9,0H204.5c-6.1,0-11.4,4.4-12.3,10.5L182.6,78c-15.8,6.1-29.8,14.9-43,25.4L75.6,78
		c-6.1-2.6-12.3,0-15.8,5.3L9,171.8c-3.5,5.3-1.8,12.3,3.5,16.7l54.4,42.1c-0.9,7.9-1.8,16.7-1.8,25.4s0.9,16.7,1.8,25.4l-54.4,42.1
		C7.2,327,6.3,334,9,340.2l50.8,88.5c2.6,5.3,9.6,7.9,15.8,5.3l64-25.4c13.2,10.5,28.1,18.4,43,25.4l9.6,67.5
		c0.9,6.1,6.1,10.5,12.3,10.5H307c6.1,0,11.4-4.4,12.3-10.5L329,434c15.8-6.1,29.8-14.9,43-25.4l64,25.4c6.1,2.6,12.3,0,15.8-5.3
		l50.8-88.5c2.6-5.3,1.8-12.3-3.5-16.7L445.6,281.4z M255.3,345.4c-49.1,0-89.4-40.3-89.4-89.4s40.3-89.4,89.4-89.4
		s89.4,40.3,89.4,89.4S304.4,345.4,255.3,345.4z"/>
</g>
</svg>
